<?xml version="1.0" encoding="utf-8"?>
<svg width="95" height="21" viewBox="0 0 95 21" fill="none" xmlns="http://www.w3.org/2000/svg" xmlns:bx="https://boxy-svg.com">
  <defs>
    <path id="path-0" d="M 66.39360269682314 9.492662273276515 L 105.42756041094796 -13.22183549864091" style="fill: none;"/>
    <style bx:fonts="Amaranth">@import url(https://fonts.googleapis.com/css2?family=Amaranth%3Aital%2Cwght%400%2C400%3B0%2C700%3B1%2C400%3B1%2C700&amp;display=swap);</style>
  </defs>
  <path d="M 31.877 16.221 C 29.532 16.221 27.798 15.801 26.676 14.963 C 25.851 14.347 25.311 13.475 25.053 12.346 C 24.891 11.633 25.493 11.019 26.224 11.019 C 26.908 11.019 27.43 11.575 27.689 12.208 C 27.874 12.662 28.162 13.019 28.552 13.279 C 29.248 13.719 30.378 13.94 31.941 13.94 C 34.599 13.94 35.927 13.179 35.927 11.659 C 35.927 11.076 35.742 10.621 35.373 10.294 C 35.003 9.968 34.414 9.747 33.604 9.634 L 29.447 8.994 C 28.026 8.781 26.988 8.369 26.335 7.758 C 25.681 7.132 25.354 6.251 25.354 5.114 C 25.354 3.693 25.894 2.613 26.974 1.874 C 28.054 1.135 29.632 0.766 31.707 0.766 C 33.824 0.766 35.409 1.149 36.46 1.917 C 37.186 2.437 37.698 3.169 37.998 4.115 C 38.23 4.848 37.607 5.519 36.839 5.519 C 36.174 5.519 35.664 4.989 35.344 4.407 C 35.161 4.075 34.908 3.813 34.584 3.622 C 33.973 3.239 33.007 3.047 31.685 3.047 C 29.212 3.047 27.976 3.715 27.976 5.05 C 27.976 5.946 28.736 6.514 30.257 6.756 L 34.328 7.374 C 35.778 7.601 36.844 8.063 37.526 8.76 C 38.222 9.442 38.571 10.387 38.571 11.595 C 38.571 13.087 37.995 14.231 36.844 15.027 C 35.707 15.823 34.051 16.221 31.877 16.221 Z" fill="black" style="transform-box: fill-box; transform-origin: 50% 50%; stroke-opacity: 0.99;" transform="matrix(1, 0, 0, 1, 0, -2.98023e-7)"/>
  <path d="M 47.897 4.032 C 49.532 4.032 50.711 4.387 51.436 5.098 C 52.175 5.794 52.545 6.931 52.545 8.508 L 52.545 14.221 C 52.545 14.951 51.953 15.543 51.223 15.543 C 50.493 15.543 49.901 14.951 49.901 14.221 L 49.901 8.572 C 49.901 6.966 48.921 6.163 46.96 6.163 C 44.686 6.163 43.549 7.378 43.549 9.809 L 43.549 14.221 C 43.549 14.951 42.957 15.543 42.227 15.543 C 41.497 15.543 40.906 14.951 40.906 14.221 L 40.906 5.161 L 40.884 5.161 L 40.884 0.664 C 40.884 -0.066 41.476 -0.658 42.206 -0.658 C 42.936 -0.658 43.528 -0.066 43.528 0.664 L 43.528 4.351 L 43.549 4.351 L 43.549 6.313 C 44.387 4.792 45.837 4.032 47.897 4.032 Z" fill="black"/>
  <path d="M 61.767 15.682 C 59.379 15.682 57.638 15.206 56.544 14.254 C 55.464 13.302 54.924 11.803 54.924 9.756 C 54.924 7.71 55.471 6.218 56.565 5.28 C 57.66 4.328 59.393 3.852 61.767 3.852 C 64.097 3.852 65.81 4.335 66.904 5.301 C 67.998 6.253 68.545 7.738 68.545 9.756 C 68.545 11.803 67.998 13.302 66.904 14.254 C 65.81 15.206 64.097 15.682 61.767 15.682 Z M 61.767 13.508 C 63.287 13.508 64.353 13.231 64.964 12.677 C 65.59 12.094 65.902 11.121 65.902 9.756 C 65.902 8.406 65.59 7.454 64.964 6.9 C 64.353 6.331 63.287 6.047 61.767 6.047 C 60.232 6.047 59.145 6.331 58.505 6.9 C 57.88 7.454 57.567 8.406 57.567 9.756 C 57.567 11.121 57.88 12.094 58.505 12.677 C 59.145 13.231 60.232 13.508 61.767 13.508 Z" fill="black"/>
  <path d="M 79.228 3.438 C 81.289 3.438 82.795 3.914 83.747 4.866 C 84.714 5.804 85.197 7.275 85.197 9.279 C 85.197 11.339 84.714 12.853 83.747 13.819 C 82.795 14.786 81.289 15.269 79.228 15.269 C 76.741 15.269 75.064 14.516 74.197 13.009 L 74.197 18.317 C 74.197 19.047 73.606 19.639 72.876 19.639 C 72.146 19.639 71.554 19.047 71.554 18.317 L 71.554 5.079 C 71.554 4.349 72.146 3.758 72.876 3.758 C 73.606 3.758 74.197 4.349 74.197 5.079 L 74.197 5.676 C 75.093 4.184 76.77 3.438 79.228 3.438 Z M 75.285 12.221 C 76.066 12.817 77.175 13.116 78.61 13.116 C 80.045 13.116 81.061 12.825 81.658 12.242 C 82.269 11.659 82.575 10.686 82.575 9.321 C 82.575 7.957 82.284 6.998 81.701 6.444 C 81.118 5.889 80.123 5.612 78.717 5.612 C 75.647 5.612 74.112 6.707 74.112 8.895 L 74.112 9.705 C 74.112 10.785 74.503 11.624 75.285 12.221 Z" fill="black"/>
  <text style="fill: rgb(51, 51, 51); font-family: Amaranth; font-size: 26.9088px; stroke-opacity: 0.99; text-anchor: middle; white-space: pre;" transform="matrix(0.856932, 0, 0, 0.854738, 11.094367, 2.069493)" x="7.715" y="16.245">E</text>
  <text style="white-space: pre; fill: rgb(51, 51, 51); font-family: Arial, sans-serif; font-size: 28px;" x="27.073" y="-6.207"> </text>
</svg>