<?xml version="1.0" encoding="utf-8"?>
<svg width="95" height="21" viewBox="0 0 95 21" fill="none" xmlns="http://www.w3.org/2000/svg">
  <path d="M6.99195 16.5206C4.64709 16.5206 2.91331 16.1014 1.79062 15.2629C0.966279 14.6473 0.425421 13.775 0.168048 12.646C0.00563765 11.9335 0.608191 11.3193 1.33889 11.3193C2.0226 11.3193 2.54516 11.8749 2.80374 12.5078C2.98936 12.9621 3.27696 13.3192 3.66651 13.5789C4.36287 14.0194 5.49266 14.2397 7.05591 14.2397C9.71342 14.2397 11.0422 13.4794 11.0422 11.9588C11.0422 11.3761 10.8574 10.9214 10.4879 10.5945C10.1184 10.2677 9.52867 10.0474 8.71863 9.93369L4.56182 9.29418C3.14069 9.08101 2.10327 8.66889 1.44955 8.0578C0.795832 7.4325 0.468972 6.5514 0.468972 5.4145C0.468972 3.99337 1.009 2.91332 2.08906 2.17433C3.16912 1.43534 4.74657 1.06585 6.82142 1.06585C8.9389 1.06585 10.5235 1.44955 11.5751 2.21696C12.3006 2.73661 12.8131 3.46935 13.1125 4.41517C13.3445 5.14815 12.7223 5.81952 11.9535 5.81952C11.2891 5.81952 10.7791 5.28908 10.4587 4.70702C10.2759 4.37506 10.0227 4.1135 9.69921 3.92232C9.08812 3.53861 8.12175 3.34676 6.8001 3.34676C4.32734 3.34676 3.09096 4.01469 3.09096 5.35055C3.09096 6.24586 3.85126 6.81431 5.37187 7.05591L9.4434 7.6741C10.893 7.90148 11.9588 8.36335 12.6409 9.0597C13.3373 9.74184 13.6855 10.6869 13.6855 11.8948C13.6855 13.387 13.1099 14.531 11.9588 15.3269C10.8219 16.1227 9.16628 16.5206 6.99195 16.5206Z" fill="black"/>
  <path d="M23.0917 4.68973C24.726 4.68973 25.9056 5.04501 26.6303 5.75557C27.3693 6.45193 27.7388 7.58883 27.7388 9.16628V14.8792C27.7388 15.6091 27.1471 16.2009 26.4172 16.2009C25.6873 16.2009 25.0955 15.6091 25.0955 14.8792V9.23023C25.0955 7.62436 24.115 6.82142 22.1538 6.82142C19.88 6.82142 18.7431 8.03648 18.7431 10.4666V14.8792C18.7431 15.6091 18.1514 16.2009 17.4214 16.2009C16.6915 16.2009 16.0998 15.6091 16.0998 14.8792V5.81952H16.0785V1.32165C16.0785 0.591724 16.6702 0 17.4001 0C18.13 0 18.7218 0.591723 18.7218 1.32165V5.00948H18.7431V6.97064C19.5815 5.45003 21.0311 4.68973 23.0917 4.68973Z" fill="black"/>
  <path d="M36.7482 16.5206C34.3607 16.5206 32.6199 16.0445 31.5256 15.0924C30.4455 14.1402 29.9055 12.6409 29.9055 10.5945C29.9055 8.54809 30.4526 7.05591 31.5469 6.11796C32.6412 5.1658 34.3749 4.68973 36.7482 4.68973C39.0789 4.68973 40.7913 5.17291 41.8856 6.13928C42.9799 7.09143 43.527 8.57651 43.527 10.5945C43.527 12.6409 42.9799 14.1402 41.8856 15.0924C40.7913 16.0445 39.0789 16.5206 36.7482 16.5206ZM36.7482 14.3463C38.2688 14.3463 39.3347 14.0692 39.9458 13.5149C40.5711 12.9323 40.8837 11.9588 40.8837 10.5945C40.8837 9.24444 40.5711 8.29229 39.9458 7.73805C39.3347 7.1696 38.2688 6.88537 36.7482 6.88537C35.2134 6.88537 34.1262 7.1696 33.4867 7.73805C32.8614 8.29229 32.5488 9.24444 32.5488 10.5945C32.5488 11.9588 32.8614 12.9323 33.4867 13.5149C34.1262 14.0692 35.2134 14.3463 36.7482 14.3463Z" fill="black"/>
  <path d="M53.4702 4.68973C55.5308 4.68973 57.0372 5.1658 57.9894 6.11796C58.9558 7.05591 59.4389 8.52677 59.4389 10.5306C59.4389 12.5912 58.9558 14.1047 57.9894 15.0711C57.0372 16.0374 55.5308 16.5206 53.4702 16.5206C50.9832 16.5206 49.3063 15.7674 48.4394 14.261V19.5689C48.4394 20.2989 47.8477 20.8906 47.1178 20.8906C46.3878 20.8906 45.7961 20.2989 45.7961 19.5689V6.33113C45.7961 5.6012 46.3878 5.00948 47.1178 5.00948C47.8477 5.00948 48.4394 5.6012 48.4394 6.33113V6.928C49.3347 5.43582 51.0116 4.68973 53.4702 4.68973ZM49.5266 13.4723C50.3082 14.0692 51.4167 14.3676 52.852 14.3676C54.2873 14.3676 55.3035 14.0763 55.9003 13.4936C56.5114 12.911 56.817 11.9375 56.817 10.5732C56.817 9.20892 56.5256 8.24965 55.943 7.69541C55.3603 7.14117 54.3655 6.86405 52.9586 6.86405C49.889 6.86405 48.3541 7.95832 48.3541 10.1469V10.9569C48.3541 12.037 48.7449 12.8754 49.5266 13.4723Z" fill="black"/>
</svg>