<?xml version="1.0" encoding="iso-8859-1"?>
<!-- Generator: Adobe Illustrator 19.0.0, SVG Export Plug-In . SVG Version: 6.00 Build 0)  -->
<!-- License: CC0. Made by SVG Repo: https://www.svgrepo.com/svg/125950/star -->
<svg version="1.1" id="Layer_1" xmlns="http://www.w3.org/2000/svg" xmlns:xlink="http://www.w3.org/1999/xlink" x="0px" y="0px"
	 width="70px" height="70px" viewBox="0 0 512 512" style="enable-background:new 0 0 512 512;" xml:space="preserve">
<g>
	<g>
		<g>
			<path d="M400.172,242.777l55.271-53.875c7.714-7.52,10.44-18.556,7.11-28.803c-3.329-10.246-12.02-17.574-22.683-19.124
				l-119.179-17.318L267.394,15.662C262.626,6.001,252.971,0,242.197,0S221.768,6.001,217,15.662l-53.298,107.994L44.523,140.974
				c-10.662,1.55-19.353,8.878-22.682,19.124c-3.329,10.246-0.605,21.282,7.111,28.802l86.239,84.062L94.832,391.661
				c-1.821,10.618,2.461,21.148,11.177,27.481c8.717,6.334,20.056,7.153,29.59,2.139l78.559-41.301
				C217.697,453.376,278.515,512,352.773,512c76.524,0,138.781-62.257,138.781-138.781
				C491.555,313.333,453.426,262.188,400.172,242.777z M215.072,355.891l-89.197,46.892c-3.576,1.881-6.493,0.242-7.582-0.547
				c-1.089-0.791-3.547-3.06-2.864-7.042l21.287-124.112c0.582-3.39-0.542-6.848-3.005-9.248l-90.173-87.897
				c-2.892-2.819-2.238-6.1-1.822-7.38c0.416-1.28,1.814-4.319,5.812-4.9l124.616-18.108c3.403-0.494,6.346-2.632,7.867-5.716
				l55.73-112.921c1.788-3.623,5.111-4.013,6.456-4.013c1.346,0,4.669,0.391,6.456,4.013l55.73,112.921
				c1.522,3.083,4.464,5.221,7.867,5.716l124.616,18.108c3.998,0.581,5.397,3.621,5.813,4.9c0.416,1.28,1.07,4.561-1.822,7.38
				l-64.186,62.566c-7.766-1.353-15.749-2.066-23.897-2.066c-1.333,0-2.662,0.023-3.986,0.061l42.446-41.374
				c2.848-2.776,3.873-6.929,2.645-10.711c-1.229-3.783-4.499-6.539-8.435-7.112l-92.506-13.442l-41.369-83.824
				c-1.761-3.566-5.393-5.824-9.37-5.824s-7.61,2.258-9.37,5.824l-41.37,83.824l-92.507,13.442
				c-3.936,0.572-7.206,3.329-8.435,7.112c-1.229,3.784-0.204,7.935,2.645,10.711l66.938,65.247l-15.802,92.132
				c-0.673,3.919,0.938,7.882,4.157,10.22c1.82,1.323,3.976,1.996,6.143,1.996c1.662,0,3.332-0.396,4.861-1.2l61.739-32.458
				C218.302,337.662,216.23,346.637,215.072,355.891z M178.619,247.24l-55.71-54.303l76.99-11.188
				c3.403-0.494,6.346-2.632,7.867-5.716l34.431-69.764l34.43,69.765c1.522,3.083,4.464,5.221,7.867,5.716l76.99,11.188
				l-48.569,47.342c-31.634,9.501-58.549,30.006-76.281,57.053l-68.163,35.836l13.151-76.679
				C182.206,253.099,181.082,249.641,178.619,247.24z M352.773,491.102c-65.001,0-117.883-52.882-117.883-117.883
				s52.882-117.883,117.883-117.883s117.883,52.882,117.883,117.883S417.775,491.102,352.773,491.102z"/>
			<path d="M415.287,362.58H362.58v-52.067c0-5.771-4.678-10.449-10.449-10.449s-10.449,4.678-10.449,10.449v52.067H289.9
				c-5.771,0-10.449,4.678-10.449,10.449s4.678,10.449,10.449,10.449h51.782V435.9c0,5.771,4.678,10.449,10.449,10.449
				s10.449-4.678,10.449-10.449v-52.423h52.708c5.771,0,10.449-4.678,10.449-10.449S421.058,362.58,415.287,362.58z"/>
		</g>
	</g>
</g>
</svg>
